<svg xmlns="http://www.w3.org/2000/svg" viewBox="0 0 393.72 90"><defs><style>.cls-1{fill:#05d686;}</style></defs><g id="Layer_2" data-name="Layer 2"><g id="Layer_1-2" data-name="Layer 1"><polygon class="cls-1" points="299.56 2.72 278.8 56.85 258.03 2.72 237.21 2.72 269.65 87.28 278.8 87.28 287.94 87.28 320.38 2.72 299.56 2.72"/><polygon class="cls-1" points="109.43 2.72 90 2.72 90 67.85 90 87.28 90 87.28 109.43 87.28 109.43 87.28 142.26 87.28 142.26 67.85 109.43 67.85 109.43 2.72"/><path class="cls-1" d="M361.28,2.72H343L310.54,87.28h20.82l5.35-14.86h30.84l5.34,14.86h20.83ZM342.53,55l9.6-27.57L361.72,55Z"/><path class="cls-1" d="M223.67,13.87a45,45,0,0,0-71.23,54,45.42,45.42,0,0,0,3.89,5.59,45,45,0,0,0,69.32.46c.08-.09.37-.47.37-.47a44.88,44.88,0,0,0,0-56.9C225.2,15.54,224.43,14.67,223.67,13.87Zm-13.08,47-.22.28c-.22.27-.44.53-.67.79a25.11,25.11,0,1,1-1.46-35.31,24.07,24.07,0,0,1,2.35,2.54,24.85,24.85,0,0,1,0,31.7Z"/><path class="cls-1" d="M79.82,73.5,64.41,60.89l-.21.25-.37.44h0l-.31.34A25.09,25.09,0,0,1,19.89,45h0A25.08,25.08,0,0,1,63.45,28c.31.35.62.7,1,1.11L79.82,16.5h0l-.35-.42A45,45,0,0,0,0,45H0A45,45,0,0,0,79.47,73.92l.35-.42Z"/></g></g></svg>