<?xml version="1.0" encoding="utf-8"?>
<!-- Generator: Adobe Illustrator 24.3.0, SVG Export Plug-In . SVG Version: 6.00 Build 0)  -->
<svg version="1.0" id="katman_1" xmlns="http://www.w3.org/2000/svg" xmlns:xlink="http://www.w3.org/1999/xlink" x="0px" y="0px"
	 viewBox="0 0 268 182" style="enable-background:new 0 0 268 182;" xml:space="preserve">
<style type="text/css">
	.st0{fill:url(#SVGID_1_);}
	.st1{fill:#FFFFFF;}
	.st2{fill:#121826;}
</style>
<linearGradient id="SVGID_1_" gradientUnits="userSpaceOnUse" x1="110.2131" y1="91.0887" x2="163.8015" y2="149.429" gradientTransform="matrix(1 0 0 -1 0 183.2756)">
	<stop  offset="0" style="stop-color:#FF61D3"/>
	<stop  offset="0.5" style="stop-color:#B318FF"/>
	<stop  offset="1" style="stop-color:#00F0FF"/>
</linearGradient>
<path class="st0" d="M180.62,57.74l-3.83-2.09c-1.68-8.26-5.7-15.64-11.34-21.47c-3.18-3.3-6.86-6.08-10.94-8.26v-2.43
	c0-1.28-2.43-2.43-6.36-3.24C144.47,19.47,139.49,19,134,19c-1.93,0-3.8,0.06-5.61,0.16c-8.6,0.53-14.9,2.28-14.9,4.3v2.43
	c-2.74,1.46-5.3,3.21-7.67,5.2c-7.32,6.23-12.59,14.8-14.62,24.56l-3.83,2.09c-1.75,0.93-2.68,2.9-2.34,4.83l3.49,19.6
	c0.34,1.99,1.96,3.49,3.96,3.74l5.86,0.72c3.18,3.43,7.2,6.11,11.84,8.07c6.23,2.65,13.56,4.05,21.44,4.27
	C132.41,99,133.22,99,134,99c6.01,0,11.75-0.65,16.99-1.99c6.86-1.78,12.84-4.77,17.36-9.07c0.53-0.5,1.06-1.03,1.56-1.59l5.52-0.53
	c2.06-0.19,3.71-1.71,4.08-3.77l3.46-19.51C183.3,60.64,182.37,58.67,180.62,57.74z"/>
<path class="st1" d="M134,88.31c-10.41,0-18.95-2.15-24.68-6.23c-5.58-3.96-8.29-9.72-8.29-17.61c0-18.2,14.8-33,33-33
	c18.2,0,33,14.8,33,33c0,7.88-2.71,13.62-8.29,17.61C152.95,86.16,144.41,88.31,134,88.31z"/>
<path class="st2" d="M134,80.71c-6.48,0-12.5-3.8-15.33-9.66l5.24-2.49c1.9,3.93,5.77,6.39,10.1,6.39c4.33,0,8.23-2.43,10.1-6.39
	l5.24,2.49C146.5,76.9,140.48,80.71,134,80.71z"/>
<path class="st2" d="M47,151.59c-2.69,0-5.18-0.52-7.46-1.56c-2.25-1.08-4.09-2.58-5.54-4.5l4.45-5.34c2.33,3.2,5.12,4.8,8.36,4.8
	c4.37,0,6.56-2.58,6.56-7.74v-21.72V109h7.82v27.84c0,4.92-1.2,8.62-3.61,11.1C55.18,150.37,51.65,151.59,47,151.59z"/>
<path class="st2" d="M81.47,118.6c4.73,0,8.34,1.14,10.83,3.42c2.53,2.24,3.79,5.64,3.79,10.2v18.78h-7.1v-3.9
	c-0.92,1.4-2.25,2.48-3.97,3.24c-1.68,0.72-3.73,1.08-6.14,1.08c-2.41,0-4.51-0.4-6.32-1.2c-1.81-0.84-3.21-1.98-4.21-3.42
	c-0.96-1.48-1.44-3.14-1.44-4.98c0-2.88,1.06-5.18,3.19-6.9c2.17-1.76,5.56-2.64,10.17-2.64h8.3v-0.48c0-2.24-0.68-3.96-2.05-5.16
	c-1.32-1.2-3.31-1.8-5.96-1.8c-1.81,0-3.59,0.28-5.36,0.84c-1.73,0.56-3.19,1.34-4.39,2.34l-2.95-5.46
	c1.68-1.28,3.71-2.26,6.08-2.94C76.31,118.94,78.82,118.6,81.47,118.6z M80.45,145.95c1.89,0,3.55-0.42,4.99-1.26
	c1.48-0.88,2.53-2.12,3.13-3.72v-3.72h-7.76c-4.33,0-6.5,1.42-6.5,4.26c0,1.36,0.54,2.44,1.62,3.24
	C77.02,145.55,78.52,145.95,80.45,145.95z"/>
<path class="st2" d="M115.68,151.41c-2.61,0-5.16-0.34-7.64-1.02c-2.49-0.68-4.47-1.54-5.96-2.58l2.89-5.7
	c1.44,0.96,3.17,1.74,5.18,2.34c2.05,0.56,4.05,0.84,6.02,0.84c4.49,0,6.74-1.18,6.74-3.54c0-1.12-0.58-1.9-1.75-2.34
	c-1.12-0.44-2.95-0.86-5.48-1.26c-2.65-0.4-4.81-0.86-6.5-1.38c-1.64-0.52-3.09-1.42-4.33-2.7c-1.2-1.32-1.81-3.14-1.81-5.46
	c0-3.04,1.26-5.46,3.79-7.26c2.57-1.84,6.02-2.76,10.35-2.76c2.21,0,4.41,0.26,6.62,0.78c2.21,0.48,4.01,1.14,5.42,1.98l-2.89,5.7
	c-2.73-1.6-5.8-2.4-9.21-2.4c-2.21,0-3.89,0.34-5.05,1.02c-1.12,0.64-1.69,1.5-1.69,2.58c0,1.2,0.6,2.06,1.81,2.58
	c1.24,0.48,3.15,0.94,5.72,1.38c2.57,0.4,4.67,0.86,6.32,1.38c1.64,0.52,3.05,1.4,4.21,2.64c1.2,1.24,1.81,3,1.81,5.28
	c0,3-1.3,5.4-3.91,7.2C123.72,150.51,120.17,151.41,115.68,151.41z"/>
<path class="st2" d="M154.53,118.6c3.13,0,5.92,0.68,8.37,2.04c2.49,1.36,4.43,3.28,5.84,5.76c1.4,2.48,2.11,5.34,2.11,8.58
	c0,3.24-0.7,6.12-2.11,8.64c-1.4,2.48-3.35,4.4-5.84,5.76c-2.45,1.36-5.24,2.04-8.37,2.04c-4.33,0-7.76-1.44-10.29-4.32v15.54h-7.52
	v-43.67h7.16v4.2c1.24-1.52,2.77-2.66,4.57-3.42C150.3,118.98,152.32,118.6,154.53,118.6z M153.69,144.99c2.77,0,5.03-0.92,6.8-2.76
	c1.81-1.84,2.71-4.26,2.71-7.26c0-3-0.9-5.42-2.71-7.26c-1.77-1.84-4.03-2.76-6.8-2.76c-1.81,0-3.43,0.42-4.88,1.26
	c-1.44,0.8-2.59,1.96-3.43,3.48c-0.84,1.52-1.26,3.28-1.26,5.28c0,2,0.42,3.76,1.26,5.28c0.84,1.52,1.99,2.7,3.43,3.54
	C150.26,144.59,151.88,144.99,153.69,144.99z"/>
<path class="st2" d="M208.18,135.16c0,0.52-0.04,1.26-0.12,2.22h-25.21c0.44,2.36,1.58,4.24,3.43,5.64
	c1.89,1.36,4.21,2.04,6.98,2.04c3.53,0,6.44-1.16,8.73-3.48l4.03,4.62c-1.44,1.72-3.27,3.02-5.48,3.9
	c-2.21,0.88-4.69,1.32-7.46,1.32c-3.53,0-6.64-0.7-9.33-2.1c-2.69-1.4-4.77-3.34-6.26-5.82c-1.44-2.52-2.17-5.36-2.17-8.52
	c0-3.12,0.7-5.92,2.11-8.4c1.44-2.52,3.43-4.48,5.96-5.88c2.53-1.4,5.38-2.1,8.55-2.1c3.13,0,5.92,0.7,8.36,2.1
	c2.49,1.36,4.41,3.3,5.78,5.82C207.48,129,208.18,131.88,208.18,135.16z M191.93,124.6c-2.41,0-4.45,0.72-6.14,2.16
	c-1.65,1.4-2.65,3.28-3.01,5.64h18.23c-0.32-2.32-1.3-4.2-2.95-5.64C196.43,125.32,194.38,124.6,191.93,124.6z"/>
<path class="st2" d="M222.57,123.64c2.17-3.36,5.98-5.04,11.43-5.04v7.14c-0.64-0.12-1.22-0.18-1.74-0.18
	c-2.93,0-5.22,0.86-6.86,2.58c-1.65,1.68-2.47,4.12-2.47,7.32v15.54h-7.52v-32.03h7.16V123.64z"/>
</svg>
