<?xml version="1.0" encoding="utf-8"?>
<!-- Generator: Adobe Illustrator 25.0.1, SVG Export Plug-In . SVG Version: 6.00 Build 0)  -->
<svg version="1.0" id="Layer_1" xmlns="http://www.w3.org/2000/svg" xmlns:xlink="http://www.w3.org/1999/xlink" x="0px" y="0px"
	 viewBox="0 0 1243.1 877.2" style="enable-background:new 0 0 1243.1 877.2;" xml:space="preserve">
<style type="text/css">
	.st0{clip-path:url(#SVGID_2_);}
	.st1{fill-rule:evenodd;clip-rule:evenodd;fill:#050038;}
	.st2{fill:#FFD02F;}
	.st3{fill:#050038;}
</style>
<g>
	<defs>
		<rect id="SVGID_1_" x="247" y="506.4" width="750" height="263.6"/>
	</defs>
	<clipPath id="SVGID_2_">
		<use xlink:href="#SVGID_1_"  style="overflow:visible;"/>
	</clipPath>
	<g class="st0">
		<path class="st1" d="M611.7,770.2l-41.5-9.9V593.2l41.5-7.9V770.2z M902,730.8c-30.1,0.1-54.5-24.2-54.7-54.3c0-0.1,0-0.2,0-0.3
			c0-29.6,24.3-53.9,54.6-53.9s54.6,24.3,54.6,53.9c0.1,30.1-24.3,54.5-54.3,54.6C902.2,730.8,902.1,730.8,902,730.8z M996.1,676.2
			c0,52-42.1,94.1-94.1,94.1c-52,0-94.1-42.1-94.1-94.1c0-51.3,42.2-93.4,94.2-93.4S996.1,624.9,996.1,676.2z M462.2,760.4l40.8,8.5
			V656.4c0-54-42.1-73-71.1-73c-19.1,0-34.9,4.6-48.7,18.4c-14.5-13.8-31.6-19.1-45.4-19.1c-20.4,0-37.5,8.5-49.4,23v-19.1
			l-41.5,7.9v165.8l41.5,8.5V655.1c0-18.4,13.2-30.9,33.5-30.9c19.1,0,32.9,12.5,32.9,30.9v105.3l40.8,8.5V655.1
			c0-18.4,13.8-30.9,33.6-30.9c19.1,0,32.9,12.5,32.9,30.9L462.2,760.4z M776.9,582.8l-24.4,3.3c-45.4,10.5-75,25-75,75v99.3
			l41.5,7.9V667c0-23,13.2-33.6,33.6-37.5l24.4-3.9L776.9,582.8z M572.2,514.3c-9.9,10.1-9.9,26.1,0,36.2
			c10.1,10.4,26.8,10.5,37.1,0.4c0.1-0.1,0.3-0.3,0.4-0.4c9.9-10,9.9-26.2,0-36.2C599.1,504.4,582.7,504.4,572.2,514.3z"/>
	</g>
</g>
<path class="st2" d="M490.2,120.6h191.5c40.4,0,73.2,32.8,73.2,73.2v191.5c0,40.4-32.8,73.2-73.2,73.2H490.2
	c-40.4,0-73.2-32.8-73.2-73.2V193.8C417,153.4,449.8,120.6,490.2,120.6z"/>
<path class="st3" d="M651.8,162.8h-37.1l30.9,54.3l-68-54.3h-37.1l34,66.4l-71.1-66.4h-37.1l37.1,84.5l-37.1,169h37.1l71.1-181.1
	l-34,181.1h37.1l68-193.1l-30.9,193.1h37.1l68-211.3L651.8,162.8z"/>
</svg>
