<?xml version="1.0" standalone="no"?>
<!DOCTYPE svg PUBLIC "-//W3C//DTD SVG 20010904//EN"
 "http://www.w3.org/TR/2001/REC-SVG-20010904/DTD/svg10.dtd">
<svg version="1.0" xmlns="http://www.w3.org/2000/svg"
 width="225.000000pt" height="225.000000pt" viewBox="0 0 225.000000 225.000000"
 preserveAspectRatio="xMidYMid meet">

<g transform="translate(0.000000,225.000000) scale(0.100000,-0.100000)"
fill="#000000" stroke="none">
<path d="M353 1335 c-17 -7 -36 -22 -42 -34 -7 -12 -11 -90 -11 -198 0 -251
-5 -246 260 -241 l172 3 24 28 c23 27 24 32 24 208 0 105 -4 188 -10 200 -22
41 -60 49 -227 49 -112 -1 -167 -5 -190 -15z m245 -115 c118 0 114 -19 -5 -22
l-97 -3 -27 -92 c-15 -51 -25 -93 -24 -93 1 0 19 7 38 15 49 20 58 19 101 -10
45 -31 45 -31 90 0 27 19 36 21 36 10 0 -19 -57 -55 -86 -55 -12 0 -33 9 -47
20 -41 33 -92 25 -144 -23 -22 -20 -23 -20 -23 -1 0 10 14 64 30 119 16 55 30
104 30 108 0 5 -19 8 -42 7 -61 -3 -70 -1 -63 10 3 6 30 10 60 10 41 0 54 4
60 18 6 16 7 16 19 0 11 -15 29 -18 94 -18z m-168 -64 c0 -20 -19 -31 -32 -18
-6 6 -7 15 -4 21 10 16 36 13 36 -3z"/>
<path d="M880 1260 c0 -18 6 -20 55 -20 l55 0 0 -160 c0 -153 1 -160 20 -160
18 0 20 8 22 158 l3 157 58 3 c49 3 58 6 55 20 -3 15 -20 17 -136 20 -127 2
-132 2 -132 -18z"/>
<path d="M1230 1100 c0 -173 1 -180 20 -180 19 0 20 7 20 180 0 173 -1 180
-20 180 -19 0 -20 -7 -20 -180z"/>
<path d="M1380 1101 c0 -174 1 -181 20 -181 18 0 20 7 20 70 l0 70 44 0 45 0
37 -70 c30 -55 43 -70 61 -70 13 0 23 3 23 6 0 3 -16 35 -37 71 -36 65 -36 66
-16 82 52 41 58 114 14 163 -27 30 -32 32 -120 36 l-91 4 0 -181z m175 114
c30 -29 32 -68 5 -95 -16 -16 -33 -20 -80 -20 l-60 0 0 63 c0 35 3 67 7 70 3
4 28 7 55 7 39 0 54 -5 73 -25z"/>
<path d="M1780 1261 c-102 -54 -107 -260 -8 -321 44 -26 122 -27 165 0 97 59
98 258 1 318 -44 27 -111 29 -158 3z m129 -36 c75 -38 82 -198 10 -249 -29
-20 -98 -21 -125 -1 -51 35 -67 122 -38 195 26 64 91 87 153 55z"/>
</g>
</svg>
